<mxfile host="app.diagrams.net" agent="Mozilla/5.0 (Windows NT 10.0; Win64; x64) AppleWebKit/537.36 (KHTML, like Gecko) Chrome/136.0.0.0 Safari/537.36" version="27.0.3">
  <diagram name="Page-1" id="MaAb4_bXooZXuClrnvUC">
    <mxGraphModel dx="919" dy="485" grid="1" gridSize="10" guides="1" tooltips="1" connect="1" arrows="1" fold="1" page="1" pageScale="1" pageWidth="850" pageHeight="1100" math="0" shadow="0">
      <root>
        <mxCell id="0" />
        <mxCell id="1" parent="0" />
        <mxCell id="cMbjRfPey_aODaMyMt_t-1" value="&lt;b&gt;Customer&lt;/b&gt;" style="rounded=0;whiteSpace=wrap;html=1;" vertex="1" parent="1">
          <mxGeometry x="359" y="150" width="120" height="50" as="geometry" />
        </mxCell>
        <mxCell id="cMbjRfPey_aODaMyMt_t-2" value="&lt;b&gt;OWNS&lt;/b&gt;" style="rhombus;whiteSpace=wrap;html=1;" vertex="1" parent="1">
          <mxGeometry x="380" y="260" width="80" height="80" as="geometry" />
        </mxCell>
        <mxCell id="cMbjRfPey_aODaMyMt_t-3" value="&lt;b&gt;Accounts&lt;/b&gt;" style="rounded=0;whiteSpace=wrap;html=1;" vertex="1" parent="1">
          <mxGeometry x="359" y="400" width="120" height="50" as="geometry" />
        </mxCell>
        <mxCell id="cMbjRfPey_aODaMyMt_t-4" value="&lt;b&gt;OWNS&lt;/b&gt;" style="rhombus;whiteSpace=wrap;html=1;" vertex="1" parent="1">
          <mxGeometry x="379" y="510" width="80" height="80" as="geometry" />
        </mxCell>
        <mxCell id="cMbjRfPey_aODaMyMt_t-5" value="&lt;b&gt;Transactions&lt;/b&gt;" style="rounded=0;whiteSpace=wrap;html=1;" vertex="1" parent="1">
          <mxGeometry x="359" y="650" width="120" height="50" as="geometry" />
        </mxCell>
        <mxCell id="cMbjRfPey_aODaMyMt_t-6" value="&lt;b&gt;ASCUND_IN&lt;/b&gt;" style="rhombus;whiteSpace=wrap;html=1;" vertex="1" parent="1">
          <mxGeometry x="379" y="760" width="80" height="80" as="geometry" />
        </mxCell>
        <mxCell id="cMbjRfPey_aODaMyMt_t-7" value="&lt;b&gt;LAST_NAME&lt;/b&gt;" style="ellipse;whiteSpace=wrap;html=1;" vertex="1" parent="1">
          <mxGeometry x="500" y="70" width="120" height="40" as="geometry" />
        </mxCell>
        <mxCell id="cMbjRfPey_aODaMyMt_t-8" value="&lt;b&gt;CUSTOMER_ID&lt;/b&gt;" style="ellipse;whiteSpace=wrap;html=1;" vertex="1" parent="1">
          <mxGeometry x="540" y="180" width="120" height="40" as="geometry" />
        </mxCell>
        <mxCell id="cMbjRfPey_aODaMyMt_t-9" value="&lt;b&gt;FIRST_NAME&lt;/b&gt;" style="ellipse;whiteSpace=wrap;html=1;" vertex="1" parent="1">
          <mxGeometry x="550" y="120" width="120" height="40" as="geometry" />
        </mxCell>
        <mxCell id="cMbjRfPey_aODaMyMt_t-10" value="&lt;b&gt;DATE_OF_BIRTH&lt;/b&gt;" style="ellipse;whiteSpace=wrap;html=1;" vertex="1" parent="1">
          <mxGeometry x="130" y="180" width="120" height="40" as="geometry" />
        </mxCell>
        <mxCell id="cMbjRfPey_aODaMyMt_t-11" value="&lt;b&gt;ADDRESS&lt;/b&gt;" style="ellipse;whiteSpace=wrap;html=1;" vertex="1" parent="1">
          <mxGeometry x="130" y="120" width="120" height="40" as="geometry" />
        </mxCell>
        <mxCell id="cMbjRfPey_aODaMyMt_t-12" value="&lt;b&gt;PHONE_NUMBER&lt;/b&gt;" style="ellipse;whiteSpace=wrap;html=1;" vertex="1" parent="1">
          <mxGeometry x="230" y="70" width="120" height="40" as="geometry" />
        </mxCell>
        <mxCell id="cMbjRfPey_aODaMyMt_t-13" value="&lt;b&gt;EMAIL&lt;/b&gt;" style="ellipse;whiteSpace=wrap;html=1;" vertex="1" parent="1">
          <mxGeometry x="359" y="60" width="120" height="40" as="geometry" />
        </mxCell>
        <mxCell id="cMbjRfPey_aODaMyMt_t-14" value="" style="endArrow=none;html=1;rounded=0;entryX=0.5;entryY=1;entryDx=0;entryDy=0;exitX=0.5;exitY=0;exitDx=0;exitDy=0;" edge="1" parent="1" source="cMbjRfPey_aODaMyMt_t-2" target="cMbjRfPey_aODaMyMt_t-1">
          <mxGeometry width="50" height="50" relative="1" as="geometry">
            <mxPoint x="350" y="270" as="sourcePoint" />
            <mxPoint x="400" y="220" as="targetPoint" />
          </mxGeometry>
        </mxCell>
        <mxCell id="cMbjRfPey_aODaMyMt_t-15" value="" style="endArrow=none;html=1;rounded=0;entryX=0;entryY=0.5;entryDx=0;entryDy=0;exitX=1;exitY=0.5;exitDx=0;exitDy=0;" edge="1" parent="1" source="cMbjRfPey_aODaMyMt_t-10" target="cMbjRfPey_aODaMyMt_t-1">
          <mxGeometry width="50" height="50" relative="1" as="geometry">
            <mxPoint x="220" y="340" as="sourcePoint" />
            <mxPoint x="270" y="290" as="targetPoint" />
          </mxGeometry>
        </mxCell>
        <mxCell id="cMbjRfPey_aODaMyMt_t-16" value="" style="endArrow=none;html=1;rounded=0;entryX=0;entryY=0.25;entryDx=0;entryDy=0;" edge="1" parent="1" source="cMbjRfPey_aODaMyMt_t-11" target="cMbjRfPey_aODaMyMt_t-1">
          <mxGeometry width="50" height="50" relative="1" as="geometry">
            <mxPoint x="250" y="190" as="sourcePoint" />
            <mxPoint x="320.71067811865476" y="140" as="targetPoint" />
          </mxGeometry>
        </mxCell>
        <mxCell id="cMbjRfPey_aODaMyMt_t-17" value="" style="endArrow=none;html=1;rounded=0;entryX=0.5;entryY=1;entryDx=0;entryDy=0;exitX=0.5;exitY=0;exitDx=0;exitDy=0;" edge="1" parent="1" source="cMbjRfPey_aODaMyMt_t-1" target="cMbjRfPey_aODaMyMt_t-13">
          <mxGeometry width="50" height="50" relative="1" as="geometry">
            <mxPoint x="280" y="300" as="sourcePoint" />
            <mxPoint x="330" y="250" as="targetPoint" />
          </mxGeometry>
        </mxCell>
        <mxCell id="cMbjRfPey_aODaMyMt_t-18" value="" style="endArrow=none;html=1;rounded=0;entryX=1;entryY=1;entryDx=0;entryDy=0;exitX=0.25;exitY=0;exitDx=0;exitDy=0;" edge="1" parent="1" source="cMbjRfPey_aODaMyMt_t-1" target="cMbjRfPey_aODaMyMt_t-12">
          <mxGeometry width="50" height="50" relative="1" as="geometry">
            <mxPoint x="230" y="300" as="sourcePoint" />
            <mxPoint x="280" y="250" as="targetPoint" />
          </mxGeometry>
        </mxCell>
        <mxCell id="cMbjRfPey_aODaMyMt_t-19" value="" style="endArrow=none;html=1;rounded=0;entryX=0;entryY=0.5;entryDx=0;entryDy=0;exitX=1;exitY=0.5;exitDx=0;exitDy=0;" edge="1" parent="1" source="cMbjRfPey_aODaMyMt_t-1" target="cMbjRfPey_aODaMyMt_t-8">
          <mxGeometry width="50" height="50" relative="1" as="geometry">
            <mxPoint x="520" y="330" as="sourcePoint" />
            <mxPoint x="570" y="280" as="targetPoint" />
          </mxGeometry>
        </mxCell>
        <mxCell id="cMbjRfPey_aODaMyMt_t-20" value="" style="endArrow=none;html=1;rounded=0;entryX=0;entryY=1;entryDx=0;entryDy=0;" edge="1" parent="1" source="cMbjRfPey_aODaMyMt_t-1" target="cMbjRfPey_aODaMyMt_t-7">
          <mxGeometry width="50" height="50" relative="1" as="geometry">
            <mxPoint x="510" y="290" as="sourcePoint" />
            <mxPoint x="560" y="240" as="targetPoint" />
          </mxGeometry>
        </mxCell>
        <mxCell id="cMbjRfPey_aODaMyMt_t-21" value="" style="endArrow=none;html=1;rounded=0;exitX=1;exitY=0.25;exitDx=0;exitDy=0;entryX=0;entryY=0.5;entryDx=0;entryDy=0;" edge="1" parent="1" source="cMbjRfPey_aODaMyMt_t-1" target="cMbjRfPey_aODaMyMt_t-9">
          <mxGeometry width="50" height="50" relative="1" as="geometry">
            <mxPoint x="490" y="330" as="sourcePoint" />
            <mxPoint x="540" y="280" as="targetPoint" />
          </mxGeometry>
        </mxCell>
        <mxCell id="cMbjRfPey_aODaMyMt_t-22" value="" style="endArrow=none;html=1;rounded=0;entryX=0.5;entryY=1;entryDx=0;entryDy=0;exitX=0.5;exitY=0;exitDx=0;exitDy=0;" edge="1" parent="1" source="cMbjRfPey_aODaMyMt_t-3" target="cMbjRfPey_aODaMyMt_t-2">
          <mxGeometry width="50" height="50" relative="1" as="geometry">
            <mxPoint x="350" y="420" as="sourcePoint" />
            <mxPoint x="400" y="370" as="targetPoint" />
          </mxGeometry>
        </mxCell>
        <mxCell id="cMbjRfPey_aODaMyMt_t-23" value="" style="endArrow=none;html=1;rounded=0;entryX=0.5;entryY=1;entryDx=0;entryDy=0;exitX=0.5;exitY=0;exitDx=0;exitDy=0;" edge="1" parent="1" source="cMbjRfPey_aODaMyMt_t-4" target="cMbjRfPey_aODaMyMt_t-3">
          <mxGeometry width="50" height="50" relative="1" as="geometry">
            <mxPoint x="430" y="510" as="sourcePoint" />
            <mxPoint x="240" y="500" as="targetPoint" />
          </mxGeometry>
        </mxCell>
        <mxCell id="cMbjRfPey_aODaMyMt_t-24" value="" style="endArrow=none;html=1;rounded=0;entryX=0.5;entryY=1;entryDx=0;entryDy=0;exitX=0.5;exitY=0;exitDx=0;exitDy=0;" edge="1" parent="1" source="cMbjRfPey_aODaMyMt_t-5" target="cMbjRfPey_aODaMyMt_t-4">
          <mxGeometry width="50" height="50" relative="1" as="geometry">
            <mxPoint x="140" y="670" as="sourcePoint" />
            <mxPoint x="190" y="620" as="targetPoint" />
          </mxGeometry>
        </mxCell>
        <mxCell id="cMbjRfPey_aODaMyMt_t-25" value="" style="endArrow=none;html=1;rounded=0;entryX=0.5;entryY=1;entryDx=0;entryDy=0;" edge="1" parent="1">
          <mxGeometry width="50" height="50" relative="1" as="geometry">
            <mxPoint x="419.6039603960394" y="760.3960396039604" as="sourcePoint" />
            <mxPoint x="419" y="700" as="targetPoint" />
          </mxGeometry>
        </mxCell>
        <mxCell id="cMbjRfPey_aODaMyMt_t-27" value="&lt;b&gt;BALANCE&lt;/b&gt;" style="ellipse;whiteSpace=wrap;html=1;" vertex="1" parent="1">
          <mxGeometry x="530" y="440" width="120" height="40" as="geometry" />
        </mxCell>
        <mxCell id="cMbjRfPey_aODaMyMt_t-28" value="&lt;b&gt;ACCOUNT_TYPE&lt;/b&gt;" style="ellipse;whiteSpace=wrap;html=1;" vertex="1" parent="1">
          <mxGeometry x="520" y="350" width="120" height="40" as="geometry" />
        </mxCell>
        <mxCell id="cMbjRfPey_aODaMyMt_t-29" value="&lt;b&gt;ACCOUNT_NUMBER&lt;/b&gt;" style="ellipse;whiteSpace=wrap;html=1;" vertex="1" parent="1">
          <mxGeometry x="200" y="450" width="120" height="40" as="geometry" />
        </mxCell>
        <mxCell id="cMbjRfPey_aODaMyMt_t-30" value="&lt;b&gt;CUSTOMER_ID&lt;/b&gt;" style="ellipse;whiteSpace=wrap;html=1;" vertex="1" parent="1">
          <mxGeometry x="140" y="390" width="120" height="40" as="geometry" />
        </mxCell>
        <mxCell id="cMbjRfPey_aODaMyMt_t-31" value="&lt;b&gt;ACCOUNT_ID&lt;/b&gt;" style="ellipse;whiteSpace=wrap;html=1;" vertex="1" parent="1">
          <mxGeometry x="210" y="340" width="120" height="40" as="geometry" />
        </mxCell>
        <mxCell id="cMbjRfPey_aODaMyMt_t-32" value="" style="endArrow=none;html=1;rounded=0;entryX=0;entryY=0.25;entryDx=0;entryDy=0;exitX=1;exitY=1;exitDx=0;exitDy=0;" edge="1" parent="1" source="cMbjRfPey_aODaMyMt_t-31" target="cMbjRfPey_aODaMyMt_t-3">
          <mxGeometry width="50" height="50" relative="1" as="geometry">
            <mxPoint x="90" y="540" as="sourcePoint" />
            <mxPoint x="140" y="490" as="targetPoint" />
          </mxGeometry>
        </mxCell>
        <mxCell id="cMbjRfPey_aODaMyMt_t-33" value="" style="endArrow=none;html=1;rounded=0;entryX=0;entryY=0.5;entryDx=0;entryDy=0;exitX=1;exitY=0.5;exitDx=0;exitDy=0;" edge="1" parent="1" source="cMbjRfPey_aODaMyMt_t-30" target="cMbjRfPey_aODaMyMt_t-3">
          <mxGeometry width="50" height="50" relative="1" as="geometry">
            <mxPoint x="140" y="570" as="sourcePoint" />
            <mxPoint x="190" y="520" as="targetPoint" />
          </mxGeometry>
        </mxCell>
        <mxCell id="cMbjRfPey_aODaMyMt_t-34" value="" style="endArrow=none;html=1;rounded=0;entryX=0;entryY=0.75;entryDx=0;entryDy=0;exitX=1;exitY=0;exitDx=0;exitDy=0;" edge="1" parent="1" source="cMbjRfPey_aODaMyMt_t-29" target="cMbjRfPey_aODaMyMt_t-3">
          <mxGeometry width="50" height="50" relative="1" as="geometry">
            <mxPoint x="280" y="570" as="sourcePoint" />
            <mxPoint x="330" y="520" as="targetPoint" />
          </mxGeometry>
        </mxCell>
        <mxCell id="cMbjRfPey_aODaMyMt_t-35" value="" style="endArrow=none;html=1;rounded=0;exitX=1;exitY=0.25;exitDx=0;exitDy=0;entryX=0;entryY=1;entryDx=0;entryDy=0;" edge="1" parent="1" source="cMbjRfPey_aODaMyMt_t-3" target="cMbjRfPey_aODaMyMt_t-28">
          <mxGeometry width="50" height="50" relative="1" as="geometry">
            <mxPoint x="510" y="330" as="sourcePoint" />
            <mxPoint x="560" y="280" as="targetPoint" />
          </mxGeometry>
        </mxCell>
        <mxCell id="cMbjRfPey_aODaMyMt_t-36" value="" style="endArrow=none;html=1;rounded=0;entryX=0;entryY=0;entryDx=0;entryDy=0;exitX=1;exitY=0.75;exitDx=0;exitDy=0;" edge="1" parent="1" source="cMbjRfPey_aODaMyMt_t-3" target="cMbjRfPey_aODaMyMt_t-27">
          <mxGeometry width="50" height="50" relative="1" as="geometry">
            <mxPoint x="460" y="520" as="sourcePoint" />
            <mxPoint x="510" y="470" as="targetPoint" />
          </mxGeometry>
        </mxCell>
        <mxCell id="cMbjRfPey_aODaMyMt_t-39" value="&lt;b&gt;FROM_ACCOUNT_ID&lt;/b&gt;" style="ellipse;whiteSpace=wrap;html=1;" vertex="1" parent="1">
          <mxGeometry x="200" y="720" width="120" height="40" as="geometry" />
        </mxCell>
        <mxCell id="cMbjRfPey_aODaMyMt_t-40" value="&lt;b&gt;AMOUNT&lt;/b&gt;" style="ellipse;whiteSpace=wrap;html=1;" vertex="1" parent="1">
          <mxGeometry x="200" y="610" width="120" height="40" as="geometry" />
        </mxCell>
        <mxCell id="cMbjRfPey_aODaMyMt_t-41" value="&lt;b&gt;TRANSACTION_ID&lt;/b&gt;" style="ellipse;whiteSpace=wrap;html=1;" vertex="1" parent="1">
          <mxGeometry x="530" y="620" width="120" height="40" as="geometry" />
        </mxCell>
        <mxCell id="cMbjRfPey_aODaMyMt_t-42" value="&lt;b&gt;TRANSACTION_DATA&lt;/b&gt;" style="ellipse;whiteSpace=wrap;html=1;" vertex="1" parent="1">
          <mxGeometry x="359" y="880" width="120" height="40" as="geometry" />
        </mxCell>
        <mxCell id="cMbjRfPey_aODaMyMt_t-43" value="" style="endArrow=none;html=1;rounded=0;entryX=0.5;entryY=1;entryDx=0;entryDy=0;exitX=0.5;exitY=0;exitDx=0;exitDy=0;" edge="1" parent="1" source="cMbjRfPey_aODaMyMt_t-42" target="cMbjRfPey_aODaMyMt_t-6">
          <mxGeometry width="50" height="50" relative="1" as="geometry">
            <mxPoint x="240" y="880" as="sourcePoint" />
            <mxPoint x="290" y="830" as="targetPoint" />
          </mxGeometry>
        </mxCell>
        <mxCell id="cMbjRfPey_aODaMyMt_t-44" value="" style="endArrow=none;html=1;rounded=0;entryX=0.008;entryY=0.2;entryDx=0;entryDy=0;exitX=1;exitY=1;exitDx=0;exitDy=0;entryPerimeter=0;" edge="1" parent="1" source="cMbjRfPey_aODaMyMt_t-40" target="cMbjRfPey_aODaMyMt_t-5">
          <mxGeometry width="50" height="50" relative="1" as="geometry">
            <mxPoint x="270" y="660" as="sourcePoint" />
            <mxPoint x="320" y="610" as="targetPoint" />
          </mxGeometry>
        </mxCell>
        <mxCell id="cMbjRfPey_aODaMyMt_t-45" value="" style="endArrow=none;html=1;rounded=0;entryX=0;entryY=0.75;entryDx=0;entryDy=0;exitX=1;exitY=0;exitDx=0;exitDy=0;" edge="1" parent="1" source="cMbjRfPey_aODaMyMt_t-39" target="cMbjRfPey_aODaMyMt_t-5">
          <mxGeometry width="50" height="50" relative="1" as="geometry">
            <mxPoint x="280" y="850" as="sourcePoint" />
            <mxPoint x="330" y="800" as="targetPoint" />
          </mxGeometry>
        </mxCell>
        <mxCell id="cMbjRfPey_aODaMyMt_t-46" value="" style="endArrow=none;html=1;rounded=0;entryX=0;entryY=1;entryDx=0;entryDy=0;exitX=1;exitY=0.5;exitDx=0;exitDy=0;" edge="1" parent="1" source="cMbjRfPey_aODaMyMt_t-5" target="cMbjRfPey_aODaMyMt_t-41">
          <mxGeometry width="50" height="50" relative="1" as="geometry">
            <mxPoint x="450" y="780" as="sourcePoint" />
            <mxPoint x="500" y="730" as="targetPoint" />
          </mxGeometry>
        </mxCell>
      </root>
    </mxGraphModel>
  </diagram>
</mxfile>
